<mxfile host="app.diagrams.net" modified="2023-08-13T02:57:42.542Z" agent="Mozilla/5.0 (Windows NT 10.0; Win64; x64) AppleWebKit/537.36 (KHTML, like Gecko) Chrome/115.0.0.0 Safari/537.36" etag="UTWn6TtMJ1Auf_v5oUzA" version="21.6.5" type="device" pages="2">
  <diagram id="sLTHCdsaOEJ2c1KA9FNG" name="Data Model">
    <mxGraphModel dx="1434" dy="750" grid="1" gridSize="10" guides="1" tooltips="1" connect="1" arrows="1" fold="1" page="1" pageScale="1" pageWidth="700" pageHeight="900" math="0" shadow="0">
      <root>
        <mxCell id="0" />
        <mxCell id="1" parent="0" />
        <mxCell id="YlQar044mDQjMCITp4Dw-1" value="&lt;div style=&quot;background-color: rgb(255, 255, 255);&quot;&gt;&lt;pre style=&quot;&quot;&gt;&lt;font style=&quot;&quot; face=&quot;Helvetica&quot;&gt;IdentificationType&lt;/font&gt;&lt;/pre&gt;&lt;/div&gt;" style="swimlane;fontStyle=0;childLayout=stackLayout;horizontal=1;startSize=26;fillColor=#d5e8d4;horizontalStack=0;resizeParent=1;resizeParentMax=0;resizeLast=0;collapsible=1;marginBottom=0;whiteSpace=wrap;html=1;strokeColor=#82b366;" parent="1" vertex="1">
          <mxGeometry x="580" y="40" width="200" height="78" as="geometry" />
        </mxCell>
        <mxCell id="YlQar044mDQjMCITp4Dw-2" value="+ id: int" style="text;strokeColor=none;fillColor=none;align=left;verticalAlign=top;spacingLeft=4;spacingRight=4;overflow=hidden;rotatable=0;points=[[0,0.5],[1,0.5]];portConstraint=eastwest;whiteSpace=wrap;html=1;" parent="YlQar044mDQjMCITp4Dw-1" vertex="1">
          <mxGeometry y="26" width="200" height="26" as="geometry" />
        </mxCell>
        <mxCell id="YlQar044mDQjMCITp4Dw-3" value="+ name: String" style="text;strokeColor=none;fillColor=none;align=left;verticalAlign=top;spacingLeft=4;spacingRight=4;overflow=hidden;rotatable=0;points=[[0,0.5],[1,0.5]];portConstraint=eastwest;whiteSpace=wrap;html=1;" parent="YlQar044mDQjMCITp4Dw-1" vertex="1">
          <mxGeometry y="52" width="200" height="26" as="geometry" />
        </mxCell>
        <mxCell id="YlQar044mDQjMCITp4Dw-5" value="&lt;div style=&quot;background-color: rgb(255, 255, 255); color: rgb(8, 8, 8);&quot;&gt;&lt;pre style=&quot;&quot;&gt;&lt;font face=&quot;Helvetica&quot;&gt;Period&lt;/font&gt;&lt;/pre&gt;&lt;/div&gt;" style="swimlane;fontStyle=0;childLayout=stackLayout;horizontal=1;startSize=26;fillColor=#fff2cc;horizontalStack=0;resizeParent=1;resizeParentMax=0;resizeLast=0;collapsible=1;marginBottom=0;whiteSpace=wrap;html=1;strokeColor=#d6b656;" parent="1" vertex="1">
          <mxGeometry x="820" y="210" width="200" height="104" as="geometry" />
        </mxCell>
        <mxCell id="YlQar044mDQjMCITp4Dw-6" value="+ id: int" style="text;strokeColor=none;fillColor=none;align=left;verticalAlign=top;spacingLeft=4;spacingRight=4;overflow=hidden;rotatable=0;points=[[0,0.5],[1,0.5]];portConstraint=eastwest;whiteSpace=wrap;html=1;" parent="YlQar044mDQjMCITp4Dw-5" vertex="1">
          <mxGeometry y="26" width="200" height="26" as="geometry" />
        </mxCell>
        <mxCell id="YlQar044mDQjMCITp4Dw-7" value="+ name: String" style="text;strokeColor=none;fillColor=none;align=left;verticalAlign=top;spacingLeft=4;spacingRight=4;overflow=hidden;rotatable=0;points=[[0,0.5],[1,0.5]];portConstraint=eastwest;whiteSpace=wrap;html=1;" parent="YlQar044mDQjMCITp4Dw-5" vertex="1">
          <mxGeometry y="52" width="200" height="26" as="geometry" />
        </mxCell>
        <mxCell id="O8F08g4mZahbJq8cuOAt-3" value="+ isActive: boolean" style="text;strokeColor=none;fillColor=none;align=left;verticalAlign=top;spacingLeft=4;spacingRight=4;overflow=hidden;rotatable=0;points=[[0,0.5],[1,0.5]];portConstraint=eastwest;whiteSpace=wrap;html=1;" parent="YlQar044mDQjMCITp4Dw-5" vertex="1">
          <mxGeometry y="78" width="200" height="26" as="geometry" />
        </mxCell>
        <mxCell id="YlQar044mDQjMCITp4Dw-13" value="Subject" style="swimlane;fontStyle=0;childLayout=stackLayout;horizontal=1;startSize=26;fillColor=#fff2cc;horizontalStack=0;resizeParent=1;resizeParentMax=0;resizeLast=0;collapsible=1;marginBottom=0;whiteSpace=wrap;html=1;strokeColor=#d6b656;" parent="1" vertex="1">
          <mxGeometry x="1100" y="248" width="200" height="78" as="geometry" />
        </mxCell>
        <mxCell id="YlQar044mDQjMCITp4Dw-14" value="+ id: int" style="text;strokeColor=none;fillColor=none;align=left;verticalAlign=top;spacingLeft=4;spacingRight=4;overflow=hidden;rotatable=0;points=[[0,0.5],[1,0.5]];portConstraint=eastwest;whiteSpace=wrap;html=1;" parent="YlQar044mDQjMCITp4Dw-13" vertex="1">
          <mxGeometry y="26" width="200" height="26" as="geometry" />
        </mxCell>
        <mxCell id="YlQar044mDQjMCITp4Dw-15" value="+ name: String" style="text;strokeColor=none;fillColor=none;align=left;verticalAlign=top;spacingLeft=4;spacingRight=4;overflow=hidden;rotatable=0;points=[[0,0.5],[1,0.5]];portConstraint=eastwest;whiteSpace=wrap;html=1;" parent="YlQar044mDQjMCITp4Dw-13" vertex="1">
          <mxGeometry y="52" width="200" height="26" as="geometry" />
        </mxCell>
        <mxCell id="JfMpCW4KjyTHCf6_Akt_-65" style="edgeStyle=orthogonalEdgeStyle;rounded=0;orthogonalLoop=1;jettySize=auto;html=1;entryX=0.5;entryY=1;entryDx=0;entryDy=0;entryPerimeter=0;" parent="1" source="YlQar044mDQjMCITp4Dw-24" target="YlQar044mDQjMCITp4Dw-15" edge="1">
          <mxGeometry relative="1" as="geometry" />
        </mxCell>
        <mxCell id="YlQar044mDQjMCITp4Dw-24" value="&lt;div style=&quot;background-color: rgb(255, 255, 255); color: rgb(8, 8, 8);&quot;&gt;&lt;pre style=&quot;&quot;&gt;&lt;font face=&quot;Helvetica&quot;&gt;CourseSubject&lt;/font&gt;&lt;/pre&gt;&lt;/div&gt;" style="swimlane;fontStyle=0;childLayout=stackLayout;horizontal=1;startSize=26;fillColor=#fff2cc;horizontalStack=0;resizeParent=1;resizeParentMax=0;resizeLast=0;collapsible=1;marginBottom=0;whiteSpace=wrap;html=1;strokeColor=#d6b656;" parent="1" vertex="1">
          <mxGeometry x="1100" y="408" width="200" height="52" as="geometry" />
        </mxCell>
        <mxCell id="YlQar044mDQjMCITp4Dw-25" value="+ id: int" style="text;strokeColor=none;fillColor=none;align=left;verticalAlign=top;spacingLeft=4;spacingRight=4;overflow=hidden;rotatable=0;points=[[0,0.5],[1,0.5]];portConstraint=eastwest;whiteSpace=wrap;html=1;" parent="YlQar044mDQjMCITp4Dw-24" vertex="1">
          <mxGeometry y="26" width="200" height="26" as="geometry" />
        </mxCell>
        <mxCell id="O8F08g4mZahbJq8cuOAt-5" style="edgeStyle=orthogonalEdgeStyle;rounded=0;orthogonalLoop=1;jettySize=auto;html=1;entryX=0.5;entryY=1;entryDx=0;entryDy=0;entryPerimeter=0;" parent="1" source="YlQar044mDQjMCITp4Dw-32" target="O8F08g4mZahbJq8cuOAt-3" edge="1">
          <mxGeometry relative="1" as="geometry" />
        </mxCell>
        <mxCell id="YlQar044mDQjMCITp4Dw-32" value="&lt;div style=&quot;background-color: rgb(255, 255, 255); color: rgb(8, 8, 8);&quot;&gt;&lt;pre style=&quot;&quot;&gt;&lt;span style=&quot;white-space: normal;&quot;&gt;&lt;font face=&quot;Helvetica&quot;&gt;StudentCourseSubjectPeriod&lt;/font&gt;&lt;/span&gt;&lt;font face=&quot;JetBrains Mono, monospace&quot;&gt;&lt;br&gt;&lt;/font&gt;&lt;/pre&gt;&lt;/div&gt;" style="swimlane;fontStyle=0;childLayout=stackLayout;horizontal=1;startSize=26;fillColor=#e1d5e7;horizontalStack=0;resizeParent=1;resizeParentMax=0;resizeLast=0;collapsible=1;marginBottom=0;whiteSpace=wrap;html=1;strokeColor=#9673a6;" parent="1" vertex="1">
          <mxGeometry x="820" y="408" width="200" height="78" as="geometry" />
        </mxCell>
        <mxCell id="YlQar044mDQjMCITp4Dw-33" value="+ id: int" style="text;strokeColor=none;fillColor=none;align=left;verticalAlign=top;spacingLeft=4;spacingRight=4;overflow=hidden;rotatable=0;points=[[0,0.5],[1,0.5]];portConstraint=eastwest;whiteSpace=wrap;html=1;" parent="YlQar044mDQjMCITp4Dw-32" vertex="1">
          <mxGeometry y="26" width="200" height="26" as="geometry" />
        </mxCell>
        <mxCell id="YlQar044mDQjMCITp4Dw-34" value="+ score: double" style="text;strokeColor=none;fillColor=none;align=left;verticalAlign=top;spacingLeft=4;spacingRight=4;overflow=hidden;rotatable=0;points=[[0,0.5],[1,0.5]];portConstraint=eastwest;whiteSpace=wrap;html=1;" parent="YlQar044mDQjMCITp4Dw-32" vertex="1">
          <mxGeometry y="52" width="200" height="26" as="geometry" />
        </mxCell>
        <mxCell id="kLuU9TrqzZ9ClX0n5IkQ-1" value="Person" style="swimlane;fontStyle=0;childLayout=stackLayout;horizontal=1;startSize=26;fillColor=#d5e8d4;horizontalStack=0;resizeParent=1;resizeParentMax=0;resizeLast=0;collapsible=1;marginBottom=0;whiteSpace=wrap;html=1;strokeColor=#82b366;" parent="1" vertex="1">
          <mxGeometry x="580" y="196" width="200" height="182" as="geometry" />
        </mxCell>
        <mxCell id="kLuU9TrqzZ9ClX0n5IkQ-2" value="+ id: int" style="text;strokeColor=none;fillColor=none;align=left;verticalAlign=top;spacingLeft=4;spacingRight=4;overflow=hidden;rotatable=0;points=[[0,0.5],[1,0.5]];portConstraint=eastwest;whiteSpace=wrap;html=1;" parent="kLuU9TrqzZ9ClX0n5IkQ-1" vertex="1">
          <mxGeometry y="26" width="200" height="26" as="geometry" />
        </mxCell>
        <mxCell id="kLuU9TrqzZ9ClX0n5IkQ-3" value="+&amp;nbsp;identificationNumber: String" style="text;strokeColor=none;fillColor=none;align=left;verticalAlign=top;spacingLeft=4;spacingRight=4;overflow=hidden;rotatable=0;points=[[0,0.5],[1,0.5]];portConstraint=eastwest;whiteSpace=wrap;html=1;" parent="kLuU9TrqzZ9ClX0n5IkQ-1" vertex="1">
          <mxGeometry y="52" width="200" height="26" as="geometry" />
        </mxCell>
        <mxCell id="kLuU9TrqzZ9ClX0n5IkQ-4" value="+&amp;nbsp;firstName: String" style="text;strokeColor=none;fillColor=none;align=left;verticalAlign=top;spacingLeft=4;spacingRight=4;overflow=hidden;rotatable=0;points=[[0,0.5],[1,0.5]];portConstraint=eastwest;whiteSpace=wrap;html=1;" parent="kLuU9TrqzZ9ClX0n5IkQ-1" vertex="1">
          <mxGeometry y="78" width="200" height="26" as="geometry" />
        </mxCell>
        <mxCell id="JfMpCW4KjyTHCf6_Akt_-1" value="+&amp;nbsp;lastName: String" style="text;strokeColor=none;fillColor=none;align=left;verticalAlign=top;spacingLeft=4;spacingRight=4;overflow=hidden;rotatable=0;points=[[0,0.5],[1,0.5]];portConstraint=eastwest;whiteSpace=wrap;html=1;" parent="kLuU9TrqzZ9ClX0n5IkQ-1" vertex="1">
          <mxGeometry y="104" width="200" height="26" as="geometry" />
        </mxCell>
        <mxCell id="JfMpCW4KjyTHCf6_Akt_-2" value="+&amp;nbsp;phone: String" style="text;strokeColor=none;fillColor=none;align=left;verticalAlign=top;spacingLeft=4;spacingRight=4;overflow=hidden;rotatable=0;points=[[0,0.5],[1,0.5]];portConstraint=eastwest;whiteSpace=wrap;html=1;" parent="kLuU9TrqzZ9ClX0n5IkQ-1" vertex="1">
          <mxGeometry y="130" width="200" height="26" as="geometry" />
        </mxCell>
        <mxCell id="JfMpCW4KjyTHCf6_Akt_-3" value="+&amp;nbsp;emailAddress: String" style="text;strokeColor=none;fillColor=none;align=left;verticalAlign=top;spacingLeft=4;spacingRight=4;overflow=hidden;rotatable=0;points=[[0,0.5],[1,0.5]];portConstraint=eastwest;whiteSpace=wrap;html=1;" parent="kLuU9TrqzZ9ClX0n5IkQ-1" vertex="1">
          <mxGeometry y="156" width="200" height="26" as="geometry" />
        </mxCell>
        <mxCell id="JfMpCW4KjyTHCf6_Akt_-7" value="User" style="swimlane;fontStyle=0;childLayout=stackLayout;horizontal=1;startSize=26;fillColor=#dae8fc;horizontalStack=0;resizeParent=1;resizeParentMax=0;resizeLast=0;collapsible=1;marginBottom=0;whiteSpace=wrap;html=1;strokeColor=#6c8ebf;" parent="1" vertex="1">
          <mxGeometry x="580" y="448" width="200" height="80" as="geometry" />
        </mxCell>
        <mxCell id="JfMpCW4KjyTHCf6_Akt_-8" value="+ password: String" style="text;strokeColor=none;fillColor=none;align=left;verticalAlign=top;spacingLeft=4;spacingRight=4;overflow=hidden;rotatable=0;points=[[0,0.5],[1,0.5]];portConstraint=eastwest;whiteSpace=wrap;html=1;" parent="JfMpCW4KjyTHCf6_Akt_-7" vertex="1">
          <mxGeometry y="26" width="200" height="26" as="geometry" />
        </mxCell>
        <mxCell id="JfMpCW4KjyTHCf6_Akt_-9" value="+ isActive: boolean" style="text;strokeColor=none;fillColor=none;align=left;verticalAlign=top;spacingLeft=4;spacingRight=4;overflow=hidden;rotatable=0;points=[[0,0.5],[1,0.5]];portConstraint=eastwest;whiteSpace=wrap;html=1;" parent="JfMpCW4KjyTHCf6_Akt_-7" vertex="1">
          <mxGeometry y="52" width="200" height="28" as="geometry" />
        </mxCell>
        <mxCell id="JfMpCW4KjyTHCf6_Akt_-12" value="Extends" style="endArrow=block;endSize=16;endFill=0;html=1;rounded=0;entryX=0.467;entryY=1.038;entryDx=0;entryDy=0;entryPerimeter=0;exitX=0.467;exitY=-0.019;exitDx=0;exitDy=0;exitPerimeter=0;" parent="1" source="JfMpCW4KjyTHCf6_Akt_-7" target="JfMpCW4KjyTHCf6_Akt_-3" edge="1">
          <mxGeometry x="-0.1639" width="160" relative="1" as="geometry">
            <mxPoint x="540" y="422" as="sourcePoint" />
            <mxPoint x="700" y="422" as="targetPoint" />
            <mxPoint as="offset" />
          </mxGeometry>
        </mxCell>
        <mxCell id="JfMpCW4KjyTHCf6_Akt_-17" value="" style="endArrow=block;endFill=1;html=1;edgeStyle=orthogonalEdgeStyle;align=left;verticalAlign=top;rounded=0;strokeColor=default;fixDash=0;editable=1;movable=1;resizable=1;rotatable=1;deletable=1;locked=0;connectable=1;bendable=0;exitX=0.5;exitY=0;exitDx=0;exitDy=0;entryX=0.5;entryY=1.038;entryDx=0;entryDy=0;entryPerimeter=0;" parent="1" source="kLuU9TrqzZ9ClX0n5IkQ-1" target="YlQar044mDQjMCITp4Dw-3" edge="1">
          <mxGeometry x="0.2466" relative="1" as="geometry">
            <mxPoint x="620" y="156.5" as="sourcePoint" />
            <mxPoint x="680" y="128" as="targetPoint" />
            <Array as="points" />
            <mxPoint as="offset" />
          </mxGeometry>
        </mxCell>
        <mxCell id="JfMpCW4KjyTHCf6_Akt_-18" value="1" style="edgeLabel;resizable=0;html=1;align=left;verticalAlign=bottom;" parent="JfMpCW4KjyTHCf6_Akt_-17" connectable="0" vertex="1">
          <mxGeometry x="-1" relative="1" as="geometry">
            <mxPoint x="10" y="-58" as="offset" />
          </mxGeometry>
        </mxCell>
        <mxCell id="JfMpCW4KjyTHCf6_Akt_-21" value="*" style="text;html=1;align=center;verticalAlign=middle;resizable=0;points=[];autosize=1;strokeColor=none;fillColor=none;" parent="1" vertex="1">
          <mxGeometry x="680" y="168" width="30" height="30" as="geometry" />
        </mxCell>
        <mxCell id="JfMpCW4KjyTHCf6_Akt_-47" style="edgeStyle=orthogonalEdgeStyle;rounded=0;orthogonalLoop=1;jettySize=auto;html=1;entryX=0.455;entryY=1.038;entryDx=0;entryDy=0;entryPerimeter=0;" parent="1" source="JfMpCW4KjyTHCf6_Akt_-22" target="YlQar044mDQjMCITp4Dw-34" edge="1">
          <mxGeometry relative="1" as="geometry">
            <Array as="points">
              <mxPoint x="911" y="540" />
              <mxPoint x="911" y="540" />
            </Array>
          </mxGeometry>
        </mxCell>
        <mxCell id="JfMpCW4KjyTHCf6_Akt_-53" style="edgeStyle=orthogonalEdgeStyle;rounded=0;orthogonalLoop=1;jettySize=auto;html=1;exitX=1;exitY=0.75;exitDx=0;exitDy=0;entryX=0.015;entryY=0.154;entryDx=0;entryDy=0;entryPerimeter=0;" parent="1" source="JfMpCW4KjyTHCf6_Akt_-22" target="YlQar044mDQjMCITp4Dw-11" edge="1">
          <mxGeometry relative="1" as="geometry" />
        </mxCell>
        <mxCell id="JfMpCW4KjyTHCf6_Akt_-22" value="Student" style="swimlane;fontStyle=0;childLayout=stackLayout;horizontal=1;startSize=26;fillColor=#d5e8d4;horizontalStack=0;resizeParent=1;resizeParentMax=0;resizeLast=0;collapsible=1;marginBottom=0;whiteSpace=wrap;html=1;strokeColor=#82b366;" parent="1" vertex="1">
          <mxGeometry x="820" y="559" width="200" height="71" as="geometry" />
        </mxCell>
        <mxCell id="JfMpCW4KjyTHCf6_Akt_-26" value="Administrative" style="swimlane;fontStyle=0;childLayout=stackLayout;horizontal=1;startSize=26;fillColor=#d5e8d4;horizontalStack=0;resizeParent=1;resizeParentMax=0;resizeLast=0;collapsible=1;marginBottom=0;whiteSpace=wrap;html=1;strokeColor=#82b366;" parent="1" vertex="1">
          <mxGeometry x="820" y="650" width="200" height="52" as="geometry" />
        </mxCell>
        <mxCell id="JfMpCW4KjyTHCf6_Akt_-31" value="Teacher" style="swimlane;fontStyle=0;childLayout=stackLayout;horizontal=1;startSize=26;fillColor=#d5e8d4;horizontalStack=0;resizeParent=1;resizeParentMax=0;resizeLast=0;collapsible=1;marginBottom=0;whiteSpace=wrap;html=1;strokeColor=#82b366;" parent="1" vertex="1">
          <mxGeometry x="820" y="730" width="200" height="52" as="geometry" />
        </mxCell>
        <mxCell id="JfMpCW4KjyTHCf6_Akt_-35" value="Extends" style="endArrow=block;endSize=16;endFill=0;html=1;rounded=0;entryX=0.205;entryY=1;entryDx=0;entryDy=0;entryPerimeter=0;exitX=0;exitY=0.5;exitDx=0;exitDy=0;" parent="1" source="JfMpCW4KjyTHCf6_Akt_-31" target="JfMpCW4KjyTHCf6_Akt_-9" edge="1">
          <mxGeometry width="160" relative="1" as="geometry">
            <mxPoint x="590" y="675.5" as="sourcePoint" />
            <mxPoint x="750" y="675.5" as="targetPoint" />
            <Array as="points">
              <mxPoint x="621" y="756" />
            </Array>
          </mxGeometry>
        </mxCell>
        <mxCell id="JfMpCW4KjyTHCf6_Akt_-40" value="Extends" style="endArrow=block;endSize=16;endFill=0;html=1;rounded=0;entryX=0.4;entryY=1.071;entryDx=0;entryDy=0;entryPerimeter=0;exitX=0;exitY=0.5;exitDx=0;exitDy=0;" parent="1" source="JfMpCW4KjyTHCf6_Akt_-26" target="JfMpCW4KjyTHCf6_Akt_-9" edge="1">
          <mxGeometry width="160" relative="1" as="geometry">
            <mxPoint x="520" y="595" as="sourcePoint" />
            <mxPoint x="680" y="595" as="targetPoint" />
            <Array as="points">
              <mxPoint x="660" y="676" />
            </Array>
          </mxGeometry>
        </mxCell>
        <mxCell id="JfMpCW4KjyTHCf6_Akt_-41" value="Extends" style="endArrow=block;endSize=16;endFill=0;html=1;rounded=0;entryX=0.61;entryY=1.107;entryDx=0;entryDy=0;entryPerimeter=0;exitX=0;exitY=0.5;exitDx=0;exitDy=0;" parent="1" source="JfMpCW4KjyTHCf6_Akt_-22" target="JfMpCW4KjyTHCf6_Akt_-9" edge="1">
          <mxGeometry width="160" relative="1" as="geometry">
            <mxPoint x="570" y="580" as="sourcePoint" />
            <mxPoint x="730" y="580" as="targetPoint" />
            <Array as="points">
              <mxPoint x="700" y="595" />
            </Array>
          </mxGeometry>
        </mxCell>
        <mxCell id="JfMpCW4KjyTHCf6_Akt_-54" style="edgeStyle=orthogonalEdgeStyle;rounded=0;orthogonalLoop=1;jettySize=auto;html=1;entryX=0.5;entryY=1.038;entryDx=0;entryDy=0;entryPerimeter=0;" parent="1" source="YlQar044mDQjMCITp4Dw-9" target="YlQar044mDQjMCITp4Dw-25" edge="1">
          <mxGeometry relative="1" as="geometry" />
        </mxCell>
        <mxCell id="YlQar044mDQjMCITp4Dw-9" value="&lt;div style=&quot;background-color:#ffffff;color:#080808;font-family:&#39;JetBrains Mono&#39;,monospace;font-size:9,8pt;&quot;&gt;&lt;pre&gt;Course&lt;/pre&gt;&lt;/div&gt;" style="swimlane;fontStyle=0;childLayout=stackLayout;horizontal=1;startSize=26;fillColor=#fff2cc;horizontalStack=0;resizeParent=1;resizeParentMax=0;resizeLast=0;collapsible=1;marginBottom=0;whiteSpace=wrap;html=1;strokeColor=#d6b656;" parent="1" vertex="1">
          <mxGeometry x="1100" y="556" width="200" height="78" as="geometry" />
        </mxCell>
        <mxCell id="YlQar044mDQjMCITp4Dw-10" value="+ id: int" style="text;strokeColor=none;fillColor=none;align=left;verticalAlign=top;spacingLeft=4;spacingRight=4;overflow=hidden;rotatable=0;points=[[0,0.5],[1,0.5]];portConstraint=eastwest;whiteSpace=wrap;html=1;" parent="YlQar044mDQjMCITp4Dw-9" vertex="1">
          <mxGeometry y="26" width="200" height="26" as="geometry" />
        </mxCell>
        <mxCell id="YlQar044mDQjMCITp4Dw-11" value="+ name: String" style="text;strokeColor=none;fillColor=none;align=left;verticalAlign=top;spacingLeft=4;spacingRight=4;overflow=hidden;rotatable=0;points=[[0,0.5],[1,0.5]];portConstraint=eastwest;whiteSpace=wrap;html=1;" parent="YlQar044mDQjMCITp4Dw-9" vertex="1">
          <mxGeometry y="52" width="200" height="26" as="geometry" />
        </mxCell>
        <mxCell id="JfMpCW4KjyTHCf6_Akt_-48" value="1" style="text;html=1;align=center;verticalAlign=middle;resizable=0;points=[];autosize=1;strokeColor=none;fillColor=none;" parent="1" vertex="1">
          <mxGeometry x="915" y="528" width="30" height="30" as="geometry" />
        </mxCell>
        <mxCell id="JfMpCW4KjyTHCf6_Akt_-49" value="*" style="text;html=1;align=center;verticalAlign=middle;resizable=0;points=[];autosize=1;strokeColor=none;fillColor=none;" parent="1" vertex="1">
          <mxGeometry x="915" y="486" width="30" height="30" as="geometry" />
        </mxCell>
        <mxCell id="JfMpCW4KjyTHCf6_Akt_-51" value="1" style="text;html=1;align=center;verticalAlign=middle;resizable=0;points=[];autosize=1;strokeColor=none;fillColor=none;" parent="1" vertex="1">
          <mxGeometry x="1076" y="590" width="30" height="30" as="geometry" />
        </mxCell>
        <mxCell id="JfMpCW4KjyTHCf6_Akt_-52" value="*" style="text;html=1;align=center;verticalAlign=middle;resizable=0;points=[];autosize=1;strokeColor=none;fillColor=none;" parent="1" vertex="1">
          <mxGeometry x="1010" y="590" width="30" height="30" as="geometry" />
        </mxCell>
        <mxCell id="JfMpCW4KjyTHCf6_Akt_-55" value="1" style="text;html=1;align=center;verticalAlign=middle;resizable=0;points=[];autosize=1;strokeColor=none;fillColor=none;" parent="1" vertex="1">
          <mxGeometry x="1165" y="528" width="30" height="30" as="geometry" />
        </mxCell>
        <mxCell id="JfMpCW4KjyTHCf6_Akt_-56" value="*" style="text;html=1;align=center;verticalAlign=middle;resizable=0;points=[];autosize=1;strokeColor=none;fillColor=none;" parent="1" vertex="1">
          <mxGeometry x="1165" y="458" width="30" height="30" as="geometry" />
        </mxCell>
        <mxCell id="JfMpCW4KjyTHCf6_Akt_-58" value="1" style="text;html=1;align=center;verticalAlign=middle;resizable=0;points=[];autosize=1;strokeColor=none;fillColor=none;" parent="1" vertex="1">
          <mxGeometry x="1076" y="418" width="30" height="30" as="geometry" />
        </mxCell>
        <mxCell id="JfMpCW4KjyTHCf6_Akt_-59" value="*" style="text;html=1;align=center;verticalAlign=middle;resizable=0;points=[];autosize=1;strokeColor=none;fillColor=none;" parent="1" vertex="1">
          <mxGeometry x="1040" y="419" width="30" height="30" as="geometry" />
        </mxCell>
        <mxCell id="JfMpCW4KjyTHCf6_Akt_-60" style="edgeStyle=orthogonalEdgeStyle;rounded=0;orthogonalLoop=1;jettySize=auto;html=1;entryX=0;entryY=0.5;entryDx=0;entryDy=0;" parent="1" source="YlQar044mDQjMCITp4Dw-33" target="YlQar044mDQjMCITp4Dw-25" edge="1">
          <mxGeometry relative="1" as="geometry" />
        </mxCell>
        <mxCell id="JfMpCW4KjyTHCf6_Akt_-63" value="*" style="text;html=1;align=center;verticalAlign=middle;resizable=0;points=[];autosize=1;strokeColor=none;fillColor=none;" parent="1" vertex="1">
          <mxGeometry x="890" y="383" width="30" height="30" as="geometry" />
        </mxCell>
        <mxCell id="JfMpCW4KjyTHCf6_Akt_-64" value="1" style="text;html=1;align=center;verticalAlign=middle;resizable=0;points=[];autosize=1;strokeColor=none;fillColor=none;" parent="1" vertex="1">
          <mxGeometry x="890" y="314" width="30" height="30" as="geometry" />
        </mxCell>
        <mxCell id="JfMpCW4KjyTHCf6_Akt_-67" value="*" style="text;html=1;align=center;verticalAlign=middle;resizable=0;points=[];autosize=1;strokeColor=none;fillColor=none;" parent="1" vertex="1">
          <mxGeometry x="1198" y="383" width="30" height="30" as="geometry" />
        </mxCell>
        <mxCell id="JfMpCW4KjyTHCf6_Akt_-68" value="1" style="text;html=1;align=center;verticalAlign=middle;resizable=0;points=[];autosize=1;strokeColor=none;fillColor=none;" parent="1" vertex="1">
          <mxGeometry x="1199" y="326" width="30" height="30" as="geometry" />
        </mxCell>
        <mxCell id="JfMpCW4KjyTHCf6_Akt_-71" style="edgeStyle=orthogonalEdgeStyle;rounded=0;orthogonalLoop=1;jettySize=auto;html=1;entryX=1;entryY=0.75;entryDx=0;entryDy=0;" parent="1" source="YlQar044mDQjMCITp4Dw-25" target="JfMpCW4KjyTHCf6_Akt_-31" edge="1">
          <mxGeometry relative="1" as="geometry">
            <Array as="points">
              <mxPoint x="1340" y="447" />
              <mxPoint x="1340" y="769" />
            </Array>
          </mxGeometry>
        </mxCell>
        <mxCell id="JfMpCW4KjyTHCf6_Akt_-72" value="1" style="text;html=1;align=center;verticalAlign=middle;resizable=0;points=[];autosize=1;strokeColor=none;fillColor=none;" parent="1" vertex="1">
          <mxGeometry x="1025" y="768" width="30" height="30" as="geometry" />
        </mxCell>
        <mxCell id="JfMpCW4KjyTHCf6_Akt_-73" value="*" style="text;html=1;align=center;verticalAlign=middle;resizable=0;points=[];autosize=1;strokeColor=none;fillColor=none;" parent="1" vertex="1">
          <mxGeometry x="1303" y="424" width="30" height="30" as="geometry" />
        </mxCell>
        <mxCell id="yxcPgT3aG5fwcR_bb0vE-1" value="Rol" style="swimlane;fontStyle=0;childLayout=stackLayout;horizontal=1;startSize=26;fillColor=#dae8fc;horizontalStack=0;resizeParent=1;resizeParentMax=0;resizeLast=0;collapsible=1;marginBottom=0;whiteSpace=wrap;html=1;strokeColor=#6c8ebf;" parent="1" vertex="1">
          <mxGeometry x="295" y="448" width="200" height="156" as="geometry" />
        </mxCell>
        <mxCell id="yxcPgT3aG5fwcR_bb0vE-2" value="+ id: int" style="text;strokeColor=none;fillColor=none;align=left;verticalAlign=top;spacingLeft=4;spacingRight=4;overflow=hidden;rotatable=0;points=[[0,0.5],[1,0.5]];portConstraint=eastwest;whiteSpace=wrap;html=1;" parent="yxcPgT3aG5fwcR_bb0vE-1" vertex="1">
          <mxGeometry y="26" width="200" height="26" as="geometry" />
        </mxCell>
        <mxCell id="yxcPgT3aG5fwcR_bb0vE-3" value="+ name: String" style="text;strokeColor=none;fillColor=none;align=left;verticalAlign=top;spacingLeft=4;spacingRight=4;overflow=hidden;rotatable=0;points=[[0,0.5],[1,0.5]];portConstraint=eastwest;whiteSpace=wrap;html=1;" parent="yxcPgT3aG5fwcR_bb0vE-1" vertex="1">
          <mxGeometry y="52" width="200" height="26" as="geometry" />
        </mxCell>
        <mxCell id="yxcPgT3aG5fwcR_bb0vE-34" value="+ isForStudent: boolean" style="text;strokeColor=none;fillColor=none;align=left;verticalAlign=top;spacingLeft=4;spacingRight=4;overflow=hidden;rotatable=0;points=[[0,0.5],[1,0.5]];portConstraint=eastwest;whiteSpace=wrap;html=1;" parent="yxcPgT3aG5fwcR_bb0vE-1" vertex="1">
          <mxGeometry y="78" width="200" height="26" as="geometry" />
        </mxCell>
        <mxCell id="yxcPgT3aG5fwcR_bb0vE-35" value="+ isForAdministrative: boolean" style="text;strokeColor=none;fillColor=none;align=left;verticalAlign=top;spacingLeft=4;spacingRight=4;overflow=hidden;rotatable=0;points=[[0,0.5],[1,0.5]];portConstraint=eastwest;whiteSpace=wrap;html=1;" parent="yxcPgT3aG5fwcR_bb0vE-1" vertex="1">
          <mxGeometry y="104" width="200" height="26" as="geometry" />
        </mxCell>
        <mxCell id="yxcPgT3aG5fwcR_bb0vE-36" value="+ isForTeacher: boolean" style="text;strokeColor=none;fillColor=none;align=left;verticalAlign=top;spacingLeft=4;spacingRight=4;overflow=hidden;rotatable=0;points=[[0,0.5],[1,0.5]];portConstraint=eastwest;whiteSpace=wrap;html=1;" parent="yxcPgT3aG5fwcR_bb0vE-1" vertex="1">
          <mxGeometry y="130" width="200" height="26" as="geometry" />
        </mxCell>
        <mxCell id="yxcPgT3aG5fwcR_bb0vE-5" value="Functionality" style="swimlane;fontStyle=0;childLayout=stackLayout;horizontal=1;startSize=26;fillColor=#dae8fc;horizontalStack=0;resizeParent=1;resizeParentMax=0;resizeLast=0;collapsible=1;marginBottom=0;whiteSpace=wrap;html=1;strokeColor=#6c8ebf;" parent="1" vertex="1">
          <mxGeometry x="20" y="314" width="200" height="78" as="geometry" />
        </mxCell>
        <mxCell id="yxcPgT3aG5fwcR_bb0vE-6" value="+ id: int" style="text;strokeColor=none;fillColor=none;align=left;verticalAlign=top;spacingLeft=4;spacingRight=4;overflow=hidden;rotatable=0;points=[[0,0.5],[1,0.5]];portConstraint=eastwest;whiteSpace=wrap;html=1;" parent="yxcPgT3aG5fwcR_bb0vE-5" vertex="1">
          <mxGeometry y="26" width="200" height="26" as="geometry" />
        </mxCell>
        <mxCell id="yxcPgT3aG5fwcR_bb0vE-7" value="+ name: String" style="text;strokeColor=none;fillColor=none;align=left;verticalAlign=top;spacingLeft=4;spacingRight=4;overflow=hidden;rotatable=0;points=[[0,0.5],[1,0.5]];portConstraint=eastwest;whiteSpace=wrap;html=1;" parent="yxcPgT3aG5fwcR_bb0vE-5" vertex="1">
          <mxGeometry y="52" width="200" height="26" as="geometry" />
        </mxCell>
        <mxCell id="yxcPgT3aG5fwcR_bb0vE-9" value="Action" style="swimlane;fontStyle=0;childLayout=stackLayout;horizontal=1;startSize=26;fillColor=#dae8fc;horizontalStack=0;resizeParent=1;resizeParentMax=0;resizeLast=0;collapsible=1;marginBottom=0;whiteSpace=wrap;html=1;strokeColor=#6c8ebf;" parent="1" vertex="1">
          <mxGeometry x="20" y="610" width="200" height="78" as="geometry" />
        </mxCell>
        <mxCell id="yxcPgT3aG5fwcR_bb0vE-10" value="+ id: int" style="text;strokeColor=none;fillColor=none;align=left;verticalAlign=top;spacingLeft=4;spacingRight=4;overflow=hidden;rotatable=0;points=[[0,0.5],[1,0.5]];portConstraint=eastwest;whiteSpace=wrap;html=1;" parent="yxcPgT3aG5fwcR_bb0vE-9" vertex="1">
          <mxGeometry y="26" width="200" height="26" as="geometry" />
        </mxCell>
        <mxCell id="yxcPgT3aG5fwcR_bb0vE-11" value="+ name: String" style="text;strokeColor=none;fillColor=none;align=left;verticalAlign=top;spacingLeft=4;spacingRight=4;overflow=hidden;rotatable=0;points=[[0,0.5],[1,0.5]];portConstraint=eastwest;whiteSpace=wrap;html=1;" parent="yxcPgT3aG5fwcR_bb0vE-9" vertex="1">
          <mxGeometry y="52" width="200" height="26" as="geometry" />
        </mxCell>
        <mxCell id="yxcPgT3aG5fwcR_bb0vE-22" style="edgeStyle=orthogonalEdgeStyle;rounded=0;orthogonalLoop=1;jettySize=auto;html=1;entryX=0.5;entryY=0.962;entryDx=0;entryDy=0;entryPerimeter=0;" parent="1" source="yxcPgT3aG5fwcR_bb0vE-13" target="yxcPgT3aG5fwcR_bb0vE-7" edge="1">
          <mxGeometry relative="1" as="geometry" />
        </mxCell>
        <mxCell id="yxcPgT3aG5fwcR_bb0vE-23" style="edgeStyle=orthogonalEdgeStyle;rounded=0;orthogonalLoop=1;jettySize=auto;html=1;entryX=0.5;entryY=0;entryDx=0;entryDy=0;" parent="1" source="yxcPgT3aG5fwcR_bb0vE-13" target="yxcPgT3aG5fwcR_bb0vE-9" edge="1">
          <mxGeometry relative="1" as="geometry" />
        </mxCell>
        <mxCell id="ZgOylqY4U7czivCNfbkH-13" style="edgeStyle=orthogonalEdgeStyle;rounded=0;orthogonalLoop=1;jettySize=auto;html=1;entryX=0;entryY=0.5;entryDx=0;entryDy=0;" parent="1" source="yxcPgT3aG5fwcR_bb0vE-13" target="yxcPgT3aG5fwcR_bb0vE-3" edge="1">
          <mxGeometry relative="1" as="geometry" />
        </mxCell>
        <mxCell id="yxcPgT3aG5fwcR_bb0vE-13" value="RolFunctionalityAction" style="swimlane;fontStyle=0;childLayout=stackLayout;horizontal=1;startSize=26;fillColor=#dae8fc;horizontalStack=0;resizeParent=1;resizeParentMax=0;resizeLast=0;collapsible=1;marginBottom=0;whiteSpace=wrap;html=1;strokeColor=#6c8ebf;" parent="1" vertex="1">
          <mxGeometry x="20" y="487" width="200" height="52" as="geometry" />
        </mxCell>
        <mxCell id="yxcPgT3aG5fwcR_bb0vE-14" value="+ id: int" style="text;strokeColor=none;fillColor=none;align=left;verticalAlign=top;spacingLeft=4;spacingRight=4;overflow=hidden;rotatable=0;points=[[0,0.5],[1,0.5]];portConstraint=eastwest;whiteSpace=wrap;html=1;" parent="yxcPgT3aG5fwcR_bb0vE-13" vertex="1">
          <mxGeometry y="26" width="200" height="26" as="geometry" />
        </mxCell>
        <mxCell id="yxcPgT3aG5fwcR_bb0vE-17" style="edgeStyle=orthogonalEdgeStyle;rounded=0;orthogonalLoop=1;jettySize=auto;html=1;entryX=1;entryY=0.5;entryDx=0;entryDy=0;" parent="1" source="JfMpCW4KjyTHCf6_Akt_-8" target="yxcPgT3aG5fwcR_bb0vE-2" edge="1">
          <mxGeometry relative="1" as="geometry" />
        </mxCell>
        <mxCell id="yxcPgT3aG5fwcR_bb0vE-18" value="1" style="text;html=1;align=center;verticalAlign=middle;resizable=0;points=[];autosize=1;strokeColor=none;fillColor=none;" parent="1" vertex="1">
          <mxGeometry x="495" y="458" width="30" height="30" as="geometry" />
        </mxCell>
        <mxCell id="yxcPgT3aG5fwcR_bb0vE-19" value="*" style="text;html=1;align=center;verticalAlign=middle;resizable=0;points=[];autosize=1;strokeColor=none;fillColor=none;" parent="1" vertex="1">
          <mxGeometry x="545" y="458" width="30" height="30" as="geometry" />
        </mxCell>
        <mxCell id="yxcPgT3aG5fwcR_bb0vE-25" value="1" style="text;html=1;align=center;verticalAlign=middle;resizable=0;points=[];autosize=1;strokeColor=none;fillColor=none;" parent="1" vertex="1">
          <mxGeometry x="265" y="488" width="30" height="30" as="geometry" />
        </mxCell>
        <mxCell id="yxcPgT3aG5fwcR_bb0vE-26" value="*" style="text;html=1;align=center;verticalAlign=middle;resizable=0;points=[];autosize=1;strokeColor=none;fillColor=none;" parent="1" vertex="1">
          <mxGeometry x="213" y="491" width="30" height="30" as="geometry" />
        </mxCell>
        <mxCell id="yxcPgT3aG5fwcR_bb0vE-27" value="1" style="text;html=1;align=center;verticalAlign=middle;resizable=0;points=[];autosize=1;strokeColor=none;fillColor=none;" parent="1" vertex="1">
          <mxGeometry x="91" y="403" width="30" height="30" as="geometry" />
        </mxCell>
        <mxCell id="yxcPgT3aG5fwcR_bb0vE-28" value="*" style="text;html=1;align=center;verticalAlign=middle;resizable=0;points=[];autosize=1;strokeColor=none;fillColor=none;" parent="1" vertex="1">
          <mxGeometry x="92" y="462" width="30" height="30" as="geometry" />
        </mxCell>
        <mxCell id="yxcPgT3aG5fwcR_bb0vE-29" value="1" style="text;html=1;align=center;verticalAlign=middle;resizable=0;points=[];autosize=1;strokeColor=none;fillColor=none;" parent="1" vertex="1">
          <mxGeometry x="90" y="581" width="30" height="30" as="geometry" />
        </mxCell>
        <mxCell id="yxcPgT3aG5fwcR_bb0vE-30" value="*" style="text;html=1;align=center;verticalAlign=middle;resizable=0;points=[];autosize=1;strokeColor=none;fillColor=none;" parent="1" vertex="1">
          <mxGeometry x="90" y="540" width="30" height="30" as="geometry" />
        </mxCell>
        <mxCell id="ypcs7qu3I1W-khz6B0MP-4" value="Security" style="rounded=0;whiteSpace=wrap;html=1;fillColor=#dae8fc;strokeColor=#6c8ebf;" parent="1" vertex="1">
          <mxGeometry x="20" y="40" width="80" height="20" as="geometry" />
        </mxCell>
        <mxCell id="ypcs7qu3I1W-khz6B0MP-6" value="Admissions" style="rounded=0;whiteSpace=wrap;html=1;fillColor=#d5e8d4;strokeColor=#82b366;" parent="1" vertex="1">
          <mxGeometry x="108" y="40" width="82" height="20" as="geometry" />
        </mxCell>
        <mxCell id="ypcs7qu3I1W-khz6B0MP-8" value="Academic Plans" style="rounded=0;whiteSpace=wrap;html=1;fillColor=#fff2cc;strokeColor=#d6b656;" parent="1" vertex="1">
          <mxGeometry x="202" y="40" width="98" height="20" as="geometry" />
        </mxCell>
        <mxCell id="ypcs7qu3I1W-khz6B0MP-9" value="Grades Management" style="rounded=0;whiteSpace=wrap;html=1;fillColor=#e1d5e7;strokeColor=#9673a6;" parent="1" vertex="1">
          <mxGeometry x="310" y="40" width="120" height="20" as="geometry" />
        </mxCell>
      </root>
    </mxGraphModel>
  </diagram>
  <diagram id="kAdMZHyzp2VP-EOIT0kS" name="Basic Entity Service">
    <mxGraphModel dx="1687" dy="882" grid="1" gridSize="10" guides="1" tooltips="1" connect="1" arrows="1" fold="1" page="1" pageScale="1" pageWidth="1500" pageHeight="1200" math="0" shadow="0">
      <root>
        <mxCell id="0" />
        <mxCell id="1" parent="0" />
        <mxCell id="A2Ri0Gge3dqls_7qrakp-1" value="VersionableAndIdentificableEntity" style="swimlane;fontStyle=1;align=center;verticalAlign=top;childLayout=stackLayout;horizontal=1;startSize=26;horizontalStack=0;resizeParent=1;resizeParentMax=0;resizeLast=0;collapsible=1;marginBottom=0;whiteSpace=wrap;html=1;" vertex="1" parent="1">
          <mxGeometry x="400" y="180" width="220" height="112" as="geometry" />
        </mxCell>
        <mxCell id="A2Ri0Gge3dqls_7qrakp-2" value="+ id: int&lt;br&gt;" style="text;strokeColor=none;fillColor=none;align=left;verticalAlign=top;spacingLeft=4;spacingRight=4;overflow=hidden;rotatable=0;points=[[0,0.5],[1,0.5]];portConstraint=eastwest;whiteSpace=wrap;html=1;" vertex="1" parent="A2Ri0Gge3dqls_7qrakp-1">
          <mxGeometry y="26" width="220" height="26" as="geometry" />
        </mxCell>
        <mxCell id="A2Ri0Gge3dqls_7qrakp-6" value="....Other properties" style="text;strokeColor=none;fillColor=none;align=left;verticalAlign=top;spacingLeft=4;spacingRight=4;overflow=hidden;rotatable=0;points=[[0,0.5],[1,0.5]];portConstraint=eastwest;whiteSpace=wrap;html=1;" vertex="1" parent="A2Ri0Gge3dqls_7qrakp-1">
          <mxGeometry y="52" width="220" height="26" as="geometry" />
        </mxCell>
        <mxCell id="A2Ri0Gge3dqls_7qrakp-5" value="+ version: long" style="text;strokeColor=none;fillColor=none;align=left;verticalAlign=top;spacingLeft=4;spacingRight=4;overflow=hidden;rotatable=0;points=[[0,0.5],[1,0.5]];portConstraint=eastwest;whiteSpace=wrap;html=1;" vertex="1" parent="A2Ri0Gge3dqls_7qrakp-1">
          <mxGeometry y="78" width="220" height="26" as="geometry" />
        </mxCell>
        <mxCell id="A2Ri0Gge3dqls_7qrakp-3" value="" style="line;strokeWidth=1;fillColor=none;align=left;verticalAlign=middle;spacingTop=-1;spacingLeft=3;spacingRight=3;rotatable=0;labelPosition=right;points=[];portConstraint=eastwest;strokeColor=inherit;" vertex="1" parent="A2Ri0Gge3dqls_7qrakp-1">
          <mxGeometry y="104" width="220" height="8" as="geometry" />
        </mxCell>
        <mxCell id="A2Ri0Gge3dqls_7qrakp-8" value="" style="endArrow=block;dashed=1;endFill=0;endSize=12;html=1;rounded=0;exitX=0.5;exitY=0;exitDx=0;exitDy=0;entryX=0.5;entryY=1;entryDx=0;entryDy=0;" edge="1" parent="1" source="A2Ri0Gge3dqls_7qrakp-1" target="M2QbkaB5N_3j5dFI6Uhu-14">
          <mxGeometry width="160" relative="1" as="geometry">
            <mxPoint x="420" y="150" as="sourcePoint" />
            <mxPoint x="510" y="110" as="targetPoint" />
          </mxGeometry>
        </mxCell>
        <mxCell id="BCyAUdf1jWSxbZmgDFcP-1" value="VersionableAndIdentificableDto" style="swimlane;fontStyle=1;align=center;verticalAlign=top;childLayout=stackLayout;horizontal=1;startSize=26;horizontalStack=0;resizeParent=1;resizeParentMax=0;resizeLast=0;collapsible=1;marginBottom=0;whiteSpace=wrap;html=1;" vertex="1" parent="1">
          <mxGeometry x="670" y="180" width="220" height="112" as="geometry" />
        </mxCell>
        <mxCell id="BCyAUdf1jWSxbZmgDFcP-2" value="+ id: int&lt;br&gt;" style="text;strokeColor=none;fillColor=none;align=left;verticalAlign=top;spacingLeft=4;spacingRight=4;overflow=hidden;rotatable=0;points=[[0,0.5],[1,0.5]];portConstraint=eastwest;whiteSpace=wrap;html=1;" vertex="1" parent="BCyAUdf1jWSxbZmgDFcP-1">
          <mxGeometry y="26" width="220" height="26" as="geometry" />
        </mxCell>
        <mxCell id="BCyAUdf1jWSxbZmgDFcP-3" value="....Other properties" style="text;strokeColor=none;fillColor=none;align=left;verticalAlign=top;spacingLeft=4;spacingRight=4;overflow=hidden;rotatable=0;points=[[0,0.5],[1,0.5]];portConstraint=eastwest;whiteSpace=wrap;html=1;" vertex="1" parent="BCyAUdf1jWSxbZmgDFcP-1">
          <mxGeometry y="52" width="220" height="26" as="geometry" />
        </mxCell>
        <mxCell id="BCyAUdf1jWSxbZmgDFcP-4" value="+ version: long" style="text;strokeColor=none;fillColor=none;align=left;verticalAlign=top;spacingLeft=4;spacingRight=4;overflow=hidden;rotatable=0;points=[[0,0.5],[1,0.5]];portConstraint=eastwest;whiteSpace=wrap;html=1;" vertex="1" parent="BCyAUdf1jWSxbZmgDFcP-1">
          <mxGeometry y="78" width="220" height="26" as="geometry" />
        </mxCell>
        <mxCell id="BCyAUdf1jWSxbZmgDFcP-5" value="" style="line;strokeWidth=1;fillColor=none;align=left;verticalAlign=middle;spacingTop=-1;spacingLeft=3;spacingRight=3;rotatable=0;labelPosition=right;points=[];portConstraint=eastwest;strokeColor=inherit;" vertex="1" parent="BCyAUdf1jWSxbZmgDFcP-1">
          <mxGeometry y="104" width="220" height="8" as="geometry" />
        </mxCell>
        <mxCell id="BCyAUdf1jWSxbZmgDFcP-6" value="" style="endArrow=block;dashed=1;endFill=0;endSize=12;html=1;rounded=0;exitX=0.5;exitY=0;exitDx=0;exitDy=0;entryX=1;entryY=0.5;entryDx=0;entryDy=0;" edge="1" parent="1" source="BCyAUdf1jWSxbZmgDFcP-1" target="M2QbkaB5N_3j5dFI6Uhu-14">
          <mxGeometry width="160" relative="1" as="geometry">
            <mxPoint x="700" y="140" as="sourcePoint" />
            <mxPoint x="650" y="45" as="targetPoint" />
            <Array as="points">
              <mxPoint x="780" y="50" />
            </Array>
          </mxGeometry>
        </mxCell>
        <mxCell id="BCyAUdf1jWSxbZmgDFcP-8" value="NoVersionableAndIdentificableDto" style="swimlane;fontStyle=1;align=center;verticalAlign=top;childLayout=stackLayout;horizontal=1;startSize=26;horizontalStack=0;resizeParent=1;resizeParentMax=0;resizeLast=0;collapsible=1;marginBottom=0;whiteSpace=wrap;html=1;" vertex="1" parent="1">
          <mxGeometry x="1020" y="180" width="220" height="60" as="geometry" />
        </mxCell>
        <mxCell id="BCyAUdf1jWSxbZmgDFcP-10" value="....Other properties" style="text;strokeColor=none;fillColor=none;align=left;verticalAlign=top;spacingLeft=4;spacingRight=4;overflow=hidden;rotatable=0;points=[[0,0.5],[1,0.5]];portConstraint=eastwest;whiteSpace=wrap;html=1;" vertex="1" parent="BCyAUdf1jWSxbZmgDFcP-8">
          <mxGeometry y="26" width="220" height="26" as="geometry" />
        </mxCell>
        <mxCell id="BCyAUdf1jWSxbZmgDFcP-12" value="" style="line;strokeWidth=1;fillColor=none;align=left;verticalAlign=middle;spacingTop=-1;spacingLeft=3;spacingRight=3;rotatable=0;labelPosition=right;points=[];portConstraint=eastwest;strokeColor=inherit;" vertex="1" parent="BCyAUdf1jWSxbZmgDFcP-8">
          <mxGeometry y="52" width="220" height="8" as="geometry" />
        </mxCell>
        <mxCell id="BCyAUdf1jWSxbZmgDFcP-13" value="" style="endArrow=block;dashed=1;endFill=0;endSize=12;html=1;rounded=0;exitX=0.5;exitY=0;exitDx=0;exitDy=0;entryX=0.5;entryY=1;entryDx=0;entryDy=0;" edge="1" parent="1" source="BCyAUdf1jWSxbZmgDFcP-8" target="M2QbkaB5N_3j5dFI6Uhu-13">
          <mxGeometry width="160" relative="1" as="geometry">
            <mxPoint x="1270" y="290" as="sourcePoint" />
            <mxPoint x="1130" y="110" as="targetPoint" />
          </mxGeometry>
        </mxCell>
        <mxCell id="BCyAUdf1jWSxbZmgDFcP-18" value="Extends" style="endArrow=block;endSize=16;endFill=0;html=1;rounded=0;entryX=0;entryY=0.5;entryDx=0;entryDy=0;exitX=1;exitY=0.5;exitDx=0;exitDy=0;" edge="1" parent="1" source="BCyAUdf1jWSxbZmgDFcP-2" target="BCyAUdf1jWSxbZmgDFcP-10">
          <mxGeometry width="160" relative="1" as="geometry">
            <mxPoint x="910" y="220" as="sourcePoint" />
            <mxPoint x="1000" y="220" as="targetPoint" />
          </mxGeometry>
        </mxCell>
        <mxCell id="M2QbkaB5N_3j5dFI6Uhu-1" value="" style="endArrow=block;dashed=1;endFill=0;endSize=12;html=1;rounded=0;exitX=1;exitY=0.5;exitDx=0;exitDy=0;entryX=0.5;entryY=1;entryDx=0;entryDy=0;" edge="1" parent="1" source="BCyAUdf1jWSxbZmgDFcP-10" target="M2QbkaB5N_3j5dFI6Uhu-12">
          <mxGeometry width="160" relative="1" as="geometry">
            <mxPoint x="990" y="290" as="sourcePoint" />
            <mxPoint x="1360" y="80" as="targetPoint" />
            <Array as="points">
              <mxPoint x="1355" y="220" />
            </Array>
          </mxGeometry>
        </mxCell>
        <mxCell id="M2QbkaB5N_3j5dFI6Uhu-3" value="EntityMapper" style="swimlane;fontStyle=1;align=center;verticalAlign=top;childLayout=stackLayout;horizontal=1;startSize=26;horizontalStack=0;resizeParent=1;resizeParentMax=0;resizeLast=0;collapsible=1;marginBottom=0;whiteSpace=wrap;html=1;" vertex="1" parent="1">
          <mxGeometry x="560" y="583" width="160" height="34" as="geometry" />
        </mxCell>
        <mxCell id="M2QbkaB5N_3j5dFI6Uhu-5" value="" style="line;strokeWidth=1;fillColor=none;align=left;verticalAlign=middle;spacingTop=-1;spacingLeft=3;spacingRight=3;rotatable=0;labelPosition=right;points=[];portConstraint=eastwest;strokeColor=inherit;" vertex="1" parent="M2QbkaB5N_3j5dFI6Uhu-3">
          <mxGeometry y="26" width="160" height="8" as="geometry" />
        </mxCell>
        <mxCell id="M2QbkaB5N_3j5dFI6Uhu-7" value="" style="endArrow=block;dashed=1;endFill=0;endSize=12;html=1;rounded=0;entryX=0.589;entryY=-0.011;entryDx=0;entryDy=0;exitX=0.5;exitY=1;exitDx=0;exitDy=0;entryPerimeter=0;" edge="1" parent="1" source="M2QbkaB5N_3j5dFI6Uhu-3" target="M2QbkaB5N_3j5dFI6Uhu-11">
          <mxGeometry width="160" relative="1" as="geometry">
            <mxPoint x="975" y="505" as="sourcePoint" />
            <mxPoint x="600" y="695" as="targetPoint" />
          </mxGeometry>
        </mxCell>
        <mxCell id="M2QbkaB5N_3j5dFI6Uhu-8" value="" style="endArrow=diamondThin;endFill=0;endSize=24;html=1;rounded=0;entryX=0;entryY=0.5;entryDx=0;entryDy=0;exitX=0;exitY=0.5;exitDx=0;exitDy=0;" edge="1" parent="1" source="A2Ri0Gge3dqls_7qrakp-6" target="M2QbkaB5N_3j5dFI6Uhu-3">
          <mxGeometry width="160" relative="1" as="geometry">
            <mxPoint x="990" y="390" as="sourcePoint" />
            <mxPoint x="1150" y="390" as="targetPoint" />
            <Array as="points">
              <mxPoint x="390" y="245" />
              <mxPoint x="390" y="487" />
            </Array>
          </mxGeometry>
        </mxCell>
        <mxCell id="M2QbkaB5N_3j5dFI6Uhu-9" value="" style="endArrow=diamondThin;endFill=0;endSize=24;html=1;rounded=0;entryX=0.444;entryY=0.029;entryDx=0;entryDy=0;exitX=0;exitY=0.5;exitDx=0;exitDy=0;entryPerimeter=0;" edge="1" parent="1" source="BCyAUdf1jWSxbZmgDFcP-4" target="M2QbkaB5N_3j5dFI6Uhu-3">
          <mxGeometry width="160" relative="1" as="geometry">
            <mxPoint x="990" y="390" as="sourcePoint" />
            <mxPoint x="1150" y="390" as="targetPoint" />
            <Array as="points">
              <mxPoint x="630" y="270" />
              <mxPoint x="630" y="440" />
            </Array>
          </mxGeometry>
        </mxCell>
        <mxCell id="M2QbkaB5N_3j5dFI6Uhu-10" value="" style="endArrow=diamondThin;endFill=0;endSize=24;html=1;rounded=0;entryX=1;entryY=0.5;entryDx=0;entryDy=0;" edge="1" parent="1" target="M2QbkaB5N_3j5dFI6Uhu-3">
          <mxGeometry width="160" relative="1" as="geometry">
            <mxPoint x="1050" y="240" as="sourcePoint" />
            <mxPoint x="1150" y="390" as="targetPoint" />
            <Array as="points">
              <mxPoint x="1050" y="340" />
              <mxPoint x="760" y="340" />
              <mxPoint x="760" y="600" />
            </Array>
          </mxGeometry>
        </mxCell>
        <mxCell id="M2QbkaB5N_3j5dFI6Uhu-11" value="&lt;p style=&quot;margin:0px;margin-top:4px;text-align:center;&quot;&gt;&lt;i&gt;&amp;lt;&amp;lt;Interface&amp;gt;&amp;gt;&lt;/i&gt;&lt;br&gt;&lt;b style=&quot;border-color: var(--border-color); background-color: initial;&quot;&gt;IBasicMapper&lt;/b&gt;&lt;/p&gt;&lt;hr size=&quot;1&quot;&gt;&lt;p style=&quot;margin:0px;margin-left:4px;&quot;&gt;+ E noIdentifiableAndVersionableDtoToEntity(N dto)&amp;nbsp;&lt;/p&gt;&amp;nbsp;+ F entityToIdentifiableAndVersionableDto(E entity)&lt;br&gt;&amp;nbsp;+ N identifiableAndVersionableDtoToNoIdentifiableAndVersionableDto(F dto)&lt;br&gt;&amp;nbsp;+ E updateEntityFromNoIdentifiableAndVersionableDto(E entity, N dto)&lt;br&gt;&amp;nbsp;+ List&amp;lt;F&amp;gt; enityListToIdentifiableAndVersionableDtoList(Iterable&amp;lt;E&amp;gt; list)&lt;br&gt;&lt;br&gt;&amp;nbsp;E = Entity&lt;br&gt;&amp;nbsp;F = IIdentifiableAndVersionable&lt;br&gt;&amp;nbsp;N = NoIIdentifiableAndVersionable&lt;br&gt;&amp;nbsp;&amp;nbsp;" style="verticalAlign=top;align=left;overflow=fill;fontSize=12;fontFamily=Helvetica;html=1;whiteSpace=wrap;" vertex="1" parent="1">
          <mxGeometry x="380" y="695" width="440" height="180" as="geometry" />
        </mxCell>
        <mxCell id="M2QbkaB5N_3j5dFI6Uhu-12" value="&lt;p style=&quot;margin:0px;margin-top:4px;text-align:center;&quot;&gt;&lt;i&gt;&amp;lt;&amp;lt;Interface&amp;gt;&amp;gt;&lt;/i&gt;&lt;br&gt;&lt;b style=&quot;border-color: var(--border-color); background-color: initial;&quot;&gt;IValidable&lt;/b&gt;&lt;br&gt;&lt;/p&gt;&lt;hr size=&quot;1&quot;&gt;&lt;p style=&quot;margin:0px;margin-left:4px;&quot;&gt;+ void validate()&lt;/p&gt;" style="verticalAlign=top;align=left;overflow=fill;fontSize=12;fontFamily=Helvetica;html=1;whiteSpace=wrap;" vertex="1" parent="1">
          <mxGeometry x="1280" y="10" width="150" height="70" as="geometry" />
        </mxCell>
        <mxCell id="M2QbkaB5N_3j5dFI6Uhu-13" value="&lt;p style=&quot;margin:0px;margin-top:4px;text-align:center;&quot;&gt;&lt;i&gt;&amp;lt;&amp;lt;Interface&amp;gt;&amp;gt;&lt;/i&gt;&lt;br&gt;&lt;b style=&quot;border-color: var(--border-color);&quot;&gt;INoIdentificableAndVersionable&lt;/b&gt;&lt;/p&gt;&lt;br&gt;&lt;hr size=&quot;1&quot;&gt;&lt;p style=&quot;margin:0px;margin-left:4px;&quot;&gt;&lt;br&gt;&lt;/p&gt;" style="verticalAlign=top;align=left;overflow=fill;fontSize=12;fontFamily=Helvetica;html=1;whiteSpace=wrap;" vertex="1" parent="1">
          <mxGeometry x="1025" y="10" width="210" height="80" as="geometry" />
        </mxCell>
        <mxCell id="M2QbkaB5N_3j5dFI6Uhu-14" value="&lt;p style=&quot;margin:0px;margin-top:4px;text-align:center;&quot;&gt;&lt;i&gt;&amp;lt;&amp;lt;Interface&amp;gt;&amp;gt;&lt;/i&gt;&lt;br&gt;&lt;b style=&quot;border-color: var(--border-color);&quot;&gt;IIdentificableAndVersionable&lt;/b&gt;&lt;/p&gt;&lt;hr size=&quot;1&quot;&gt;&lt;p style=&quot;margin:0px;margin-left:4px;&quot;&gt;+ int getId()&lt;br&gt;+ long getVersion()&lt;/p&gt;" style="verticalAlign=top;align=left;overflow=fill;fontSize=12;fontFamily=Helvetica;html=1;whiteSpace=wrap;" vertex="1" parent="1">
          <mxGeometry x="415" y="10" width="190" height="80" as="geometry" />
        </mxCell>
        <mxCell id="M2QbkaB5N_3j5dFI6Uhu-15" value="&lt;p style=&quot;margin:0px;margin-top:4px;text-align:center;&quot;&gt;&lt;i&gt;&amp;lt;&amp;lt;Abstract Class&amp;gt;&amp;gt;&lt;/i&gt;&lt;br&gt;&lt;b&gt;BasicService&lt;/b&gt;&lt;br&gt;&lt;/p&gt;&lt;hr size=&quot;1&quot;&gt;&lt;p style=&quot;margin:0px;margin-left:4px;&quot;&gt;+ dao: D&lt;br&gt;+ mapper: M&lt;/p&gt;&lt;hr size=&quot;1&quot;&gt;&lt;p style=&quot;margin:0px;margin-left:4px;&quot;&gt;+ List&amp;lt;F&amp;gt; list()&lt;br&gt;+ F create(N dto)&lt;/p&gt;&lt;p style=&quot;margin:0px;margin-left:4px;&quot;&gt;+&amp;nbsp;F findById(Integer id)&lt;/p&gt;&lt;p style=&quot;margin:0px;margin-left:4px;&quot;&gt;+&amp;nbsp;F update(Integer id, F dto)&lt;/p&gt;&lt;p style=&quot;margin:0px;margin-left:4px;&quot;&gt;+&amp;nbsp;void delete(Integer id)&lt;/p&gt;&lt;p style=&quot;margin:0px;margin-left:4px;&quot;&gt;&amp;lt;&amp;lt;abstract&amp;gt;&amp;gt;&lt;/p&gt;&lt;p style=&quot;margin:0px;margin-left:4px;&quot;&gt;- void&amp;nbsp;validateConstrains(Integer id, IValidable dto)&lt;/p&gt;&lt;p style=&quot;margin:0px;margin-left:4px;&quot;&gt;- E validateInstanceIfExistsAndReturn(Integer id)&lt;/p&gt;&lt;p style=&quot;margin:0px;margin-left:4px;&quot;&gt;&lt;br&gt;&lt;/p&gt;&lt;p style=&quot;margin:0px;margin-left:4px;&quot;&gt;E = Entity&lt;br style=&quot;border-color: var(--border-color);&quot;&gt;F = IIdentifiableAndVersionable&lt;br style=&quot;border-color: var(--border-color);&quot;&gt;N = NoIIdentifiableAndVersionable&lt;br&gt;&lt;/p&gt;&lt;p style=&quot;margin:0px;margin-left:4px;&quot;&gt;D =&amp;nbsp;EntityDao&amp;lt;E, Integer&amp;gt;&lt;/p&gt;&lt;p style=&quot;margin:0px;margin-left:4px;&quot;&gt;M =&amp;nbsp;IBasicMapper&lt;/p&gt;" style="verticalAlign=top;align=left;overflow=fill;fontSize=12;fontFamily=Helvetica;html=1;whiteSpace=wrap;" vertex="1" parent="1">
          <mxGeometry x="940" y="580" width="290" height="300" as="geometry" />
        </mxCell>
        <mxCell id="M2QbkaB5N_3j5dFI6Uhu-16" value="&lt;p style=&quot;margin:0px;margin-top:4px;text-align:center;&quot;&gt;&lt;i&gt;&amp;lt;&amp;lt;Interface&amp;gt;&amp;gt;&lt;/i&gt;&lt;br&gt;&lt;b&gt;CrudRepository&lt;/b&gt;&lt;/p&gt;&lt;hr size=&quot;1&quot;&gt;&lt;p style=&quot;margin:0px;margin-left:4px;&quot;&gt;&lt;br&gt;&lt;/p&gt;" style="verticalAlign=top;align=left;overflow=fill;fontSize=12;fontFamily=Helvetica;html=1;whiteSpace=wrap;" vertex="1" parent="1">
          <mxGeometry x="130" y="10" width="190" height="50" as="geometry" />
        </mxCell>
        <mxCell id="M2QbkaB5N_3j5dFI6Uhu-18" value="&lt;p style=&quot;margin:0px;margin-top:4px;text-align:center;&quot;&gt;&lt;i&gt;&amp;lt;&amp;lt;Interface&amp;gt;&amp;gt;&lt;/i&gt;&lt;br&gt;&lt;b&gt;EntityDao&lt;/b&gt;&lt;/p&gt;&lt;hr size=&quot;1&quot;&gt;&lt;p style=&quot;margin:0px;margin-left:4px;&quot;&gt;&lt;br&gt;&lt;/p&gt;" style="verticalAlign=top;align=left;overflow=fill;fontSize=12;fontFamily=Helvetica;html=1;whiteSpace=wrap;" vertex="1" parent="1">
          <mxGeometry x="130" y="180" width="190" height="50" as="geometry" />
        </mxCell>
        <mxCell id="M2QbkaB5N_3j5dFI6Uhu-20" value="Extends" style="endArrow=block;endSize=16;endFill=0;html=1;rounded=0;entryX=0.5;entryY=1;entryDx=0;entryDy=0;exitX=0.5;exitY=0;exitDx=0;exitDy=0;" edge="1" parent="1" source="M2QbkaB5N_3j5dFI6Uhu-18" target="M2QbkaB5N_3j5dFI6Uhu-16">
          <mxGeometry width="160" relative="1" as="geometry">
            <mxPoint x="130" y="310" as="sourcePoint" />
            <mxPoint x="290" y="310" as="targetPoint" />
          </mxGeometry>
        </mxCell>
        <mxCell id="M2QbkaB5N_3j5dFI6Uhu-21" value="" style="endArrow=diamondThin;endFill=0;endSize=24;html=1;rounded=0;entryX=0;entryY=0.25;entryDx=0;entryDy=0;exitX=0.5;exitY=1;exitDx=0;exitDy=0;" edge="1" parent="1" source="M2QbkaB5N_3j5dFI6Uhu-18" target="M2QbkaB5N_3j5dFI6Uhu-15">
          <mxGeometry width="160" relative="1" as="geometry">
            <mxPoint x="790" y="655" as="sourcePoint" />
            <mxPoint x="940" y="650" as="targetPoint" />
            <Array as="points">
              <mxPoint x="225" y="650" />
            </Array>
          </mxGeometry>
        </mxCell>
        <mxCell id="M2QbkaB5N_3j5dFI6Uhu-22" value="" style="endArrow=diamondThin;endFill=0;endSize=24;html=1;rounded=0;entryX=0.25;entryY=0;entryDx=0;entryDy=0;exitX=0.75;exitY=0;exitDx=0;exitDy=0;" edge="1" parent="1" source="M2QbkaB5N_3j5dFI6Uhu-3" target="M2QbkaB5N_3j5dFI6Uhu-15">
          <mxGeometry width="160" relative="1" as="geometry">
            <mxPoint x="830" y="550" as="sourcePoint" />
            <mxPoint x="990" y="550" as="targetPoint" />
            <Array as="points">
              <mxPoint x="680" y="510" />
              <mxPoint x="840" y="510" />
              <mxPoint x="1013" y="510" />
            </Array>
          </mxGeometry>
        </mxCell>
        <mxCell id="M2QbkaB5N_3j5dFI6Uhu-23" value="" style="endArrow=diamondThin;endFill=0;endSize=24;html=1;rounded=0;entryX=0;entryY=0;entryDx=0;entryDy=0;exitX=0.5;exitY=1;exitDx=0;exitDy=0;" edge="1" parent="1" source="A2Ri0Gge3dqls_7qrakp-1" target="M2QbkaB5N_3j5dFI6Uhu-15">
          <mxGeometry width="160" relative="1" as="geometry">
            <mxPoint x="760" y="600" as="sourcePoint" />
            <mxPoint x="920" y="600" as="targetPoint" />
            <Array as="points">
              <mxPoint x="510" y="540" />
              <mxPoint x="940" y="540" />
            </Array>
          </mxGeometry>
        </mxCell>
        <mxCell id="M2QbkaB5N_3j5dFI6Uhu-24" value="" style="endArrow=diamondThin;endFill=0;endSize=24;html=1;rounded=0;entryX=0.5;entryY=0;entryDx=0;entryDy=0;exitX=1;exitY=0.5;exitDx=0;exitDy=0;" edge="1" parent="1" source="BCyAUdf1jWSxbZmgDFcP-4" target="M2QbkaB5N_3j5dFI6Uhu-15">
          <mxGeometry width="160" relative="1" as="geometry">
            <mxPoint x="610" y="390" as="sourcePoint" />
            <mxPoint x="770" y="390" as="targetPoint" />
            <Array as="points">
              <mxPoint x="1085" y="270" />
            </Array>
          </mxGeometry>
        </mxCell>
        <mxCell id="M2QbkaB5N_3j5dFI6Uhu-25" value="" style="endArrow=diamondThin;endFill=0;endSize=24;html=1;rounded=0;entryX=0.841;entryY=0;entryDx=0;entryDy=0;exitX=0.75;exitY=1;exitDx=0;exitDy=0;entryPerimeter=0;" edge="1" parent="1" source="BCyAUdf1jWSxbZmgDFcP-8" target="M2QbkaB5N_3j5dFI6Uhu-15">
          <mxGeometry width="160" relative="1" as="geometry">
            <mxPoint x="1030" y="510" as="sourcePoint" />
            <mxPoint x="1190" y="510" as="targetPoint" />
          </mxGeometry>
        </mxCell>
      </root>
    </mxGraphModel>
  </diagram>
</mxfile>
